<mxfile host="app.diagrams.net" modified="2025-07-28T20:30:00.000Z" agent="5.0" etag="abc123" version="24.6.4" type="device">
  <diagram name="FSI-3-Hackaton-GenAI-Voting-System" id="architecture">
    <mxGraphModel dx="1422" dy="794" grid="1" gridSize="10" guides="1" tooltips="1" connect="1" arrows="1" fold="1" page="1" pageScale="1" pageWidth="1169" pageHeight="827" math="0" shadow="0">
      <root>
        <mxCell id="0" />
        <mxCell id="1" parent="0" />
        
        <!-- Title -->
        <mxCell id="title" value="FSI 3 Hackaton GenAI Voting System Architecture" style="text;html=1;strokeColor=none;fillColor=none;align=center;verticalAlign=middle;whiteSpace=wrap;rounded=0;fontSize=20;fontStyle=1;fontColor=#232F3E;" vertex="1" parent="1">
          <mxGeometry x="284" y="20" width="600" height="40" as="geometry" />
        </mxCell>

        <!-- AWS Cloud Container -->
        <mxCell id="aws-cloud" value="" style="sketch=0;outlineConnect=0;gradientColor=none;html=1;whiteSpace=wrap;fontSize=12;fontStyle=0;shape=mxgraph.aws4.group;grIcon=mxgraph.aws4.group_aws_cloud;strokeColor=#232F3E;fillColor=none;verticalAlign=top;align=left;spacingLeft=30;fontColor=#232F3E;dashed=0;" vertex="1" parent="1">
          <mxGeometry x="50" y="80" width="1070" height="700" as="geometry" />
        </mxCell>

        <!-- Internet/Users -->
        <mxCell id="users" value="Judges &amp; Admins" style="sketch=0;outlineConnect=0;fontColor=#232F3E;gradientColor=none;fillColor=#232F3D;strokeColor=none;dashed=0;verticalLabelPosition=bottom;verticalAlign=top;align=center;html=1;fontSize=12;fontStyle=0;aspect=fixed;pointerEvents=1;shape=mxgraph.aws4.users;" vertex="1" parent="1">
          <mxGeometry x="20" y="300" width="78" height="78" as="geometry" />
        </mxCell>

        <!-- API Gateway -->
        <mxCell id="api-gateway" value="API Gateway&#xa;REST API" style="sketch=0;points=[[0,0,0],[0.25,0,0],[0.5,0,0],[0.75,0,0],[1,0,0],[0,1,0],[0.25,1,0],[0.5,1,0],[0.75,1,0],[1,1,0],[0,0.25,0],[0,0.5,0],[0,0.75,0],[1,0.25,0],[1,0.5,0],[1,0.75,0]];outlineConnect=0;fontColor=#232F3E;gradientColor=#FF4F8B;gradientDirection=north;fillColor=#BC1356;strokeColor=#ffffff;dashed=0;verticalLabelPosition=bottom;verticalAlign=top;align=center;html=1;fontSize=12;fontStyle=0;aspect=fixed;shape=mxgraph.aws4.resourceIcon;resIcon=mxgraph.aws4.api_gateway;" vertex="1" parent="1">
          <mxGeometry x="200" y="300" width="78" height="78" as="geometry" />
        </mxCell>

        <!-- Lambda Function -->
        <mxCell id="lambda" value="Lambda Function&#xa;Voting System Logic" style="sketch=0;points=[[0,0,0],[0.25,0,0],[0.5,0,0],[0.75,0,0],[1,0,0],[0,1,0],[0.25,1,0],[0.5,1,0],[0.75,1,0],[1,1,0],[0,0.25,0],[0,0.5,0],[0,0.75,0],[1,0.25,0],[1,0.5,0],[1,0.75,0]];outlineConnect=0;fontColor=#232F3E;gradientColor=#F78E04;gradientDirection=north;fillColor=#D05C17;strokeColor=#ffffff;dashed=0;verticalLabelPosition=bottom;verticalAlign=top;align=center;html=1;fontSize=12;fontStyle=0;aspect=fixed;shape=mxgraph.aws4.resourceIcon;resIcon=mxgraph.aws4.lambda;" vertex="1" parent="1">
          <mxGeometry x="400" y="300" width="78" height="78" as="geometry" />
        </mxCell>

        <!-- DynamoDB Tables Container -->
        <mxCell id="dynamodb-container" value="DynamoDB Tables" style="sketch=0;outlineConnect=0;gradientColor=none;html=1;whiteSpace=wrap;fontSize=12;fontStyle=1;shape=mxgraph.aws4.group;grIcon=mxgraph.aws4.group_on_premise;strokeColor=#5A6C86;fillColor=none;verticalAlign=top;align=left;spacingLeft=30;fontColor=#5A6C86;dashed=1;" vertex="1" parent="1">
          <mxGeometry x="600" y="150" width="300" height="400" as="geometry" />
        </mxCell>

        <!-- Teams Table -->
        <mxCell id="teams-table" value="Teams Table&#xa;Team Data &amp; Problem Statements" style="sketch=0;points=[[0,0,0],[0.25,0,0],[0.5,0,0],[0.75,0,0],[1,0,0],[0,1,0],[0.25,1,0],[0.5,1,0],[0.75,1,0],[1,1,0],[0,0.25,0],[0,0.5,0],[0,0.75,0],[1,0.25,0],[1,0.5,0],[1,0.75,0]];outlineConnect=0;fontColor=#232F3E;gradientColor=#4D72F3;gradientDirection=north;fillColor=#3334B9;strokeColor=#ffffff;dashed=0;verticalLabelPosition=bottom;verticalAlign=top;align=center;html=1;fontSize=12;fontStyle=0;aspect=fixed;shape=mxgraph.aws4.resourceIcon;resIcon=mxgraph.aws4.dynamodb;" vertex="1" parent="1">
          <mxGeometry x="620" y="180" width="60" height="60" as="geometry" />
        </mxCell>

        <!-- Judges Table -->
        <mxCell id="judges-table" value="Judges Table&#xa;Judge Information" style="sketch=0;points=[[0,0,0],[0.25,0,0],[0.5,0,0],[0.75,0,0],[1,0,0],[0,1,0],[0.25,1,0],[0.5,1,0],[0.75,1,0],[1,1,0],[0,0.25,0],[0,0.5,0],[0,0.75,0],[1,0.25,0],[1,0.5,0],[1,0.75,0]];outlineConnect=0;fontColor=#232F3E;gradientColor=#4D72F3;gradientDirection=north;fillColor=#3334B9;strokeColor=#ffffff;dashed=0;verticalLabelPosition=bottom;verticalAlign=top;align=center;html=1;fontSize=12;fontStyle=0;aspect=fixed;shape=mxgraph.aws4.resourceIcon;resIcon=mxgraph.aws4.dynamodb;" vertex="1" parent="1">
          <mxGeometry x="720" y="180" width="60" height="60" as="geometry" />
        </mxCell>

        <!-- Votes Table -->
        <mxCell id="votes-table" value="Votes Table&#xa;Voting Records" style="sketch=0;points=[[0,0,0],[0.25,0,0],[0.5,0,0],[0.75,0,0],[1,0,0],[0,1,0],[0.25,1,0],[0.5,1,0],[0.75,1,0],[1,1,0],[0,0.25,0],[0,0.5,0],[0,0.75,0],[1,0.25,0],[1,0.5,0],[1,0.75,0]];outlineConnect=0;fontColor=#232F3E;gradientColor=#4D72F3;gradientDirection=north;fillColor=#3334B9;strokeColor=#ffffff;dashed=0;verticalLabelPosition=bottom;verticalAlign=top;align=center;html=1;fontSize=12;fontStyle=0;aspect=fixed;shape=mxgraph.aws4.resourceIcon;resIcon=mxgraph.aws4.dynamodb;" vertex="1" parent="1">
          <mxGeometry x="820" y="180" width="60" height="60" as="geometry" />
        </mxCell>

        <!-- Criteria Table -->
        <mxCell id="criteria-table" value="Criteria Table&#xa;Evaluation Criteria" style="sketch=0;points=[[0,0,0],[0.25,0,0],[0.5,0,0],[0.75,0,0],[1,0,0],[0,1,0],[0.25,1,0],[0.5,1,0],[0.75,1,0],[1,1,0],[0,0.25,0],[0,0.5,0],[0,0.75,0],[1,0.25,0],[1,0.5,0],[1,0.75,0]];outlineConnect=0;fontColor=#232F3E;gradientColor=#4D72F3;gradientDirection=north;fillColor=#3334B9;strokeColor=#ffffff;dashed=0;verticalLabelPosition=bottom;verticalAlign=top;align=center;html=1;fontSize=12;fontStyle=0;aspect=fixed;shape=mxgraph.aws4.resourceIcon;resIcon=mxgraph.aws4.dynamodb;" vertex="1" parent="1">
          <mxGeometry x="620" y="280" width="60" height="60" as="geometry" />
        </mxCell>

        <!-- Settings Table -->
        <mxCell id="settings-table" value="Settings Table&#xa;System Configuration" style="sketch=0;points=[[0,0,0],[0.25,0,0],[0.5,0,0],[0.75,0,0],[1,0,0],[0,1,0],[0.25,1,0],[0.5,1,0],[0.75,1,0],[1,1,0],[0,0.25,0],[0,0.5,0],[0,0.75,0],[1,0.25,0],[1,0.5,0],[1,0.75,0]];outlineConnect=0;fontColor=#232F3E;gradientColor=#4D72F3;gradientDirection=north;fillColor=#3334B9;strokeColor=#ffffff;dashed=0;verticalLabelPosition=bottom;verticalAlign=top;align=center;html=1;fontSize=12;fontStyle=0;aspect=fixed;shape=mxgraph.aws4.resourceIcon;resIcon=mxgraph.aws4.dynamodb;" vertex="1" parent="1">
          <mxGeometry x="720" y="280" width="60" height="60" as="geometry" />
        </mxCell>

        <!-- SES -->
        <mxCell id="ses" value="Amazon SES&#xa;Email Notifications" style="sketch=0;points=[[0,0,0],[0.25,0,0],[0.5,0,0],[0.75,0,0],[1,0,0],[0,1,0],[0.25,1,0],[0.5,1,0],[0.75,1,0],[1,1,0],[0,0.25,0],[0,0.5,0],[0,0.75,0],[1,0.25,0],[1,0.5,0],[1,0.75,0]];outlineConnect=0;fontColor=#232F3E;gradientColor=#945DF2;gradientDirection=north;fillColor=#5A30B5;strokeColor=#ffffff;dashed=0;verticalLabelPosition=bottom;verticalAlign=top;align=center;html=1;fontSize=12;fontStyle=0;aspect=fixed;shape=mxgraph.aws4.resourceIcon;resIcon=mxgraph.aws4.ses;" vertex="1" parent="1">
          <mxGeometry x="400" y="450" width="78" height="78" as="geometry" />
        </mxCell>

        <!-- S3 Bucket -->
        <mxCell id="s3" value="S3 Bucket&#xa;Static Assets &amp; Stickers" style="sketch=0;points=[[0,0,0],[0.25,0,0],[0.5,0,0],[0.75,0,0],[1,0,0],[0,1,0],[0.25,1,0],[0.5,1,0],[0.75,1,0],[1,1,0],[0,0.25,0],[0,0.5,0],[0,0.75,0],[1,0.25,0],[1,0.5,0],[1,0.75,0]];outlineConnect=0;fontColor=#232F3E;gradientColor=#60A337;gradientDirection=north;fillColor=#277116;strokeColor=#ffffff;dashed=0;verticalLabelPosition=bottom;verticalAlign=top;align=center;html=1;fontSize=12;fontStyle=0;aspect=fixed;shape=mxgraph.aws4.resourceIcon;resIcon=mxgraph.aws4.s3;" vertex="1" parent="1">
          <mxGeometry x="200" y="450" width="78" height="78" as="geometry" />
        </mxCell>

        <!-- CloudFormation -->
        <mxCell id="cloudformation" value="CloudFormation&#xa;Infrastructure as Code" style="sketch=0;points=[[0,0,0],[0.25,0,0],[0.5,0,0],[0.75,0,0],[1,0,0],[0,1,0],[0.25,1,0],[0.5,1,0],[0.75,1,0],[1,1,0],[0,0.25,0],[0,0.5,0],[0,0.75,0],[1,0.25,0],[1,0.5,0],[1,0.75,0]];outlineConnect=0;fontColor=#232F3E;gradientColor=#F34482;gradientDirection=north;fillColor=#BC1356;strokeColor=#ffffff;dashed=0;verticalLabelPosition=bottom;verticalAlign=top;align=center;html=1;fontSize=12;fontStyle=0;aspect=fixed;shape=mxgraph.aws4.resourceIcon;resIcon=mxgraph.aws4.cloudformation;" vertex="1" parent="1">
          <mxGeometry x="950" y="600" width="78" height="78" as="geometry" />
        </mxCell>

        <!-- SAM CLI -->
        <mxCell id="sam" value="SAM CLI&#xa;Deployment Tool" style="sketch=0;outlineConnect=0;fontColor=#232F3E;gradientColor=none;fillColor=#232F3D;strokeColor=none;dashed=0;verticalLabelPosition=bottom;verticalAlign=top;align=center;html=1;fontSize=12;fontStyle=0;aspect=fixed;pointerEvents=1;shape=mxgraph.aws4.command_line_interface;" vertex="1" parent="1">
          <mxGeometry x="950" y="700" width="78" height="78" as="geometry" />
        </mxCell>

        <!-- IAM -->
        <mxCell id="iam" value="IAM&#xa;Permissions &amp; Policies" style="sketch=0;points=[[0,0,0],[0.25,0,0],[0.5,0,0],[0.75,0,0],[1,0,0],[0,1,0],[0.25,1,0],[0.5,1,0],[0.75,1,0],[1,1,0],[0,0.25,0],[0,0.5,0],[0,0.75,0],[1,0.25,0],[1,0.5,0],[1,0.75,0]];outlineConnect=0;fontColor=#232F3E;gradientColor=#F54749;gradientDirection=north;fillColor=#C7131F;strokeColor=#ffffff;dashed=0;verticalLabelPosition=bottom;verticalAlign=top;align=center;html=1;fontSize=12;fontStyle=0;aspect=fixed;shape=mxgraph.aws4.resourceIcon;resIcon=mxgraph.aws4.iam;" vertex="1" parent="1">
          <mxGeometry x="820" y="600" width="78" height="78" as="geometry" />
        </mxCell>

        <!-- Connections -->
        
        <!-- Users to API Gateway -->
        <mxCell id="conn1" value="HTTPS Requests" style="endArrow=classic;html=1;rounded=0;strokeColor=#232F3E;strokeWidth=2;fontColor=#232F3E;" edge="1" parent="1" source="users" target="api-gateway">
          <mxGeometry width="50" height="50" relative="1" as="geometry">
            <mxPoint x="120" y="340" as="sourcePoint" />
            <mxPoint x="170" y="290" as="targetPoint" />
          </mxGeometry>
        </mxCell>

        <!-- API Gateway to Lambda -->
        <mxCell id="conn2" value="Invoke Function" style="endArrow=classic;html=1;rounded=0;strokeColor=#232F3E;strokeWidth=2;fontColor=#232F3E;" edge="1" parent="1" source="api-gateway" target="lambda">
          <mxGeometry width="50" height="50" relative="1" as="geometry">
            <mxPoint x="300" y="340" as="sourcePoint" />
            <mxPoint x="350" y="290" as="targetPoint" />
          </mxGeometry>
        </mxCell>

        <!-- Lambda to DynamoDB Tables -->
        <mxCell id="conn3" value="CRUD Operations" style="endArrow=classic;html=1;rounded=0;strokeColor=#232F3E;strokeWidth=2;fontColor=#232F3E;" edge="1" parent="1" source="lambda" target="teams-table">
          <mxGeometry width="50" height="50" relative="1" as="geometry">
            <mxPoint x="500" y="300" as="sourcePoint" />
            <mxPoint x="600" y="220" as="targetPoint" />
          </mxGeometry>
        </mxCell>

        <mxCell id="conn4" value="" style="endArrow=classic;html=1;rounded=0;strokeColor=#232F3E;strokeWidth=2;" edge="1" parent="1" source="lambda" target="judges-table">
          <mxGeometry width="50" height="50" relative="1" as="geometry">
            <mxPoint x="500" y="300" as="sourcePoint" />
            <mxPoint x="700" y="220" as="targetPoint" />
          </mxGeometry>
        </mxCell>

        <mxCell id="conn5" value="" style="endArrow=classic;html=1;rounded=0;strokeColor=#232F3E;strokeWidth=2;" edge="1" parent="1" source="lambda" target="votes-table">
          <mxGeometry width="50" height="50" relative="1" as="geometry">
            <mxPoint x="500" y="300" as="sourcePoint" />
            <mxPoint x="800" y="220" as="targetPoint" />
          </mxGeometry>
        </mxCell>

        <mxCell id="conn6" value="" style="endArrow=classic;html=1;rounded=0;strokeColor=#232F3E;strokeWidth=2;" edge="1" parent="1" source="lambda" target="criteria-table">
          <mxGeometry width="50" height="50" relative="1" as="geometry">
            <mxPoint x="500" y="340" as="sourcePoint" />
            <mxPoint x="600" y="300" as="targetPoint" />
          </mxGeometry>
        </mxCell>

        <mxCell id="conn7" value="" style="endArrow=classic;html=1;rounded=0;strokeColor=#232F3E;strokeWidth=2;" edge="1" parent="1" source="lambda" target="settings-table">
          <mxGeometry width="50" height="50" relative="1" as="geometry">
            <mxPoint x="500" y="340" as="sourcePoint" />
            <mxPoint x="700" y="300" as="targetPoint" />
          </mxGeometry>
        </mxCell>

        <!-- Lambda to SES -->
        <mxCell id="conn8" value="Send Email" style="endArrow=classic;html=1;rounded=0;strokeColor=#232F3E;strokeWidth=2;fontColor=#232F3E;" edge="1" parent="1" source="lambda" target="ses">
          <mxGeometry width="50" height="50" relative="1" as="geometry">
            <mxPoint x="439" y="400" as="sourcePoint" />
            <mxPoint x="439" y="450" as="targetPoint" />
          </mxGeometry>
        </mxCell>

        <!-- Lambda to S3 -->
        <mxCell id="conn9" value="Static Assets" style="endArrow=classic;html=1;rounded=0;strokeColor=#232F3E;strokeWidth=2;fontColor=#232F3E;" edge="1" parent="1" source="lambda" target="s3">
          <mxGeometry width="50" height="50" relative="1" as="geometry">
            <mxPoint x="400" y="380" as="sourcePoint" />
            <mxPoint x="300" y="450" as="targetPoint" />
          </mxGeometry>
        </mxCell>

        <!-- IAM to Lambda -->
        <mxCell id="conn10" value="Execution Role" style="endArrow=classic;html=1;rounded=0;strokeColor=#C7131F;strokeWidth=2;fontColor=#C7131F;dashed=1;" edge="1" parent="1" source="iam" target="lambda">
          <mxGeometry width="50" height="50" relative="1" as="geometry">
            <mxPoint x="820" y="600" as="sourcePoint" />
            <mxPoint x="500" y="400" as="targetPoint" />
          </mxGeometry>
        </mxCell>

        <!-- CloudFormation manages resources -->
        <mxCell id="conn11" value="Manages Infrastructure" style="endArrow=classic;html=1;rounded=0;strokeColor=#BC1356;strokeWidth=2;fontColor=#BC1356;dashed=1;" edge="1" parent="1" source="cloudformation" target="lambda">
          <mxGeometry width="50" height="50" relative="1" as="geometry">
            <mxPoint x="950" y="600" as="sourcePoint" />
            <mxPoint x="500" y="400" as="targetPoint" />
          </mxGeometry>
        </mxCell>

        <!-- Features Box -->
        <mxCell id="features-box" value="Key Features" style="rounded=1;whiteSpace=wrap;html=1;fillColor=#E1F5FE;strokeColor=#0277BD;fontStyle=1;fontSize=14;fontColor=#01579B;verticalAlign=top;spacingTop=10;" vertex="1" parent="1">
          <mxGeometry x="950" y="150" width="150" height="200" as="geometry" />
        </mxCell>

        <mxCell id="features-text" value="• Team Management&#xa;• Judge Administration&#xa;• Voting Interface&#xa;• Email Notifications&#xa;• Duplicate Vote Prevention&#xa;• Auto-expanding Comments&#xa;• Real-time Leaderboard&#xa;• Criteria Management&#xa;• AWS Sticker Integration&#xa;• Mobile Responsive" style="text;html=1;strokeColor=none;fillColor=none;align=left;verticalAlign=top;whiteSpace=wrap;rounded=0;fontSize=10;fontColor=#01579B;" vertex="1" parent="1">
          <mxGeometry x="960" y="180" width="130" height="160" as="geometry" />
        </mxCell>

        <!-- Technology Stack Box -->
        <mxCell id="tech-box" value="Technology Stack" style="rounded=1;whiteSpace=wrap;html=1;fillColor=#FFF3E0;strokeColor=#F57C00;fontStyle=1;fontSize=14;fontColor=#E65100;verticalAlign=top;spacingTop=10;" vertex="1" parent="1">
          <mxGeometry x="950" y="370" width="150" height="180" as="geometry" />
        </mxCell>

        <mxCell id="tech-text" value="• Python 3.9&#xa;• AWS Lambda&#xa;• API Gateway&#xa;• DynamoDB&#xa;• Amazon SES&#xa;• S3 Storage&#xa;• CloudFormation&#xa;• SAM Framework&#xa;• Bootstrap 5&#xa;• JavaScript ES6" style="text;html=1;strokeColor=none;fillColor=none;align=left;verticalAlign=top;whiteSpace=wrap;rounded=0;fontSize=10;fontColor=#E65100;" vertex="1" parent="1">
          <mxGeometry x="960" y="400" width="130" height="140" as="geometry" />
        </mxCell>

        <!-- Data Flow Labels -->
        <mxCell id="flow1" value="1. User Access" style="text;html=1;strokeColor=none;fillColor=#FFEB3B;align=center;verticalAlign=middle;whiteSpace=wrap;rounded=1;fontSize=10;fontColor=#F57F17;" vertex="1" parent="1">
          <mxGeometry x="110" y="280" width="80" height="20" as="geometry" />
        </mxCell>

        <mxCell id="flow2" value="2. API Processing" style="text;html=1;strokeColor=none;fillColor=#FFEB3B;align=center;verticalAlign=middle;whiteSpace=wrap;rounded=1;fontSize=10;fontColor=#F57F17;" vertex="1" parent="1">
          <mxGeometry x="300" y="280" width="80" height="20" as="geometry" />
        </mxCell>

        <mxCell id="flow3" value="3. Business Logic" style="text;html=1;strokeColor=none;fillColor=#FFEB3B;align=center;verticalAlign=middle;whiteSpace=wrap;rounded=1;fontSize=10;fontColor=#F57F17;" vertex="1" parent="1">
          <mxGeometry x="400" y="280" width="80" height="20" as="geometry" />
        </mxCell>

        <mxCell id="flow4" value="4. Data Storage" style="text;html=1;strokeColor=none;fillColor=#FFEB3B;align=center;verticalAlign=middle;whiteSpace=wrap;rounded=1;fontSize=10;fontColor=#F57F17;" vertex="1" parent="1">
          <mxGeometry x="710" y="130" width="80" height="20" as="geometry" />
        </mxCell>

        <mxCell id="flow5" value="5. Email Service" style="text;html=1;strokeColor=none;fillColor=#FFEB3B;align=center;verticalAlign=middle;whiteSpace=wrap;rounded=1;fontSize=10;fontColor=#F57F17;" vertex="1" parent="1">
          <mxGeometry x="400" y="430" width="80" height="20" as="geometry" />
        </mxCell>

      </root>
    </mxGraphModel>
  </diagram>
</mxfile>
